HIERARCHY
ROOT Root
{
	OFFSET 0.00000 0.00000 0.00000
	CHANNELS 6 Xposition Yposition Zposition Zrotation Xrotation Yrotation
	JOINT Hips
	{
		OFFSET 0 0 0	
		CHANNELS 3 Zrotation Xrotation Yrotation
		JOINT Spine
		{
			OFFSET 0 4 0	
			CHANNELS 3 Zrotation Xrotation Yrotation
			JOINT Spine1
			{
				OFFSET 0 19.4 0	
				CHANNELS 3 Zrotation Xrotation Yrotation
				JOINT Spine2
				{
					OFFSET 0 16.6 0	
					CHANNELS 3 Zrotation Xrotation Yrotation
					JOINT LeftCollar
					{
						OFFSET 0 10 0	
						CHANNELS 3 Zrotation Xrotation Yrotation
						JOINT LeftArm
						{
							OFFSET 15.6 -2 3	
							CHANNELS 3 Zrotation Xrotation Yrotation
							JOINT LeftForeArm
							{
								OFFSET 3.5 -27 -1	
								CHANNELS 3 Zrotation Xrotation Yrotation
								JOINT LeftHand
								{
									OFFSET 1 -27 1	
									CHANNELS 3 Zrotation Xrotation Yrotation
									End Site
									{
										OFFSET 0 -15 0
									}
								}
							}
						}
					}
					JOINT RightCollar
					{
						OFFSET 0 10 0	
						CHANNELS 3 Zrotation Xrotation Yrotation
						JOINT RightArm
						{
							OFFSET -15.6 -2 3	
							CHANNELS 3 Zrotation Xrotation Yrotation
							JOINT RightForeArm
							{
								OFFSET -3.5 -27 -1	
								CHANNELS 3 Zrotation Xrotation Yrotation
								JOINT RightHand
								{
									OFFSET -1 -27 1	
									CHANNELS 3 Zrotation Xrotation Yrotation
									End Site
									{
										OFFSET 0 -15 0
									}
								}
							}
						}
					}
					JOINT Neck
					{
						OFFSET 0 10 0	
						CHANNELS 3 Zrotation Xrotation Yrotation
						JOINT Head
						{
							OFFSET 0 12.7 3	
							CHANNELS 3 Zrotation Xrotation Yrotation
							End Site
							{
								OFFSET 0 12.7 3
							}
						}
					}
				}
			}
		}
	}
	JOINT LeftHip
	{
		OFFSET 0 0 0	
		CHANNELS 3 Zrotation Xrotation Yrotation
		JOINT LeftUpLeg
		{
			OFFSET 8.8 -6 0	
			CHANNELS 3 Zrotation Xrotation Yrotation
			JOINT LeftLeg
			{
				OFFSET 0 -39 2	
				CHANNELS 3 Zrotation Xrotation Yrotation
				JOINT LeftFoot
				{
					OFFSET 0 -43 -2	
					CHANNELS 3 Zrotation Xrotation Yrotation
					JOINT LeftFootFront
					{
						OFFSET 0 -7 8.5	
						CHANNELS 3 Zrotation Xrotation Yrotation
						End Site
						{
							OFFSET 0 -0.5 9
						}
					}
				}
				JOINT LeftHeel
				{
					OFFSET 0 -43 -2	
					CHANNELS 3 Zrotation Xrotation Yrotation
					End Site
					{
						OFFSET 0 -7.5 -5
					}
				}
			}
		}
	}
	JOINT RightHip
	{
		OFFSET 0 0 0	
		CHANNELS 3 Zrotation Xrotation Yrotation
		JOINT RightUpLeg
		{
			OFFSET -8.8 -6 0	
			CHANNELS 3 Zrotation Xrotation Yrotation
			JOINT RightLeg
			{
				OFFSET 0 -39 2	
				CHANNELS 3 Zrotation Xrotation Yrotation
				JOINT RightFoot
				{
					OFFSET 0 -43 -2	
					CHANNELS 3 Zrotation Xrotation Yrotation
					JOINT RightFootFront
					{
						OFFSET 0 -7 8.5	
						CHANNELS 3 Zrotation Xrotation Yrotation
						End Site
						{
							OFFSET 0 -0.5 9
						}
					}
				}
				JOINT RightHeel
				{
					OFFSET 0 -43 -2	
					CHANNELS 3 Zrotation Xrotation Yrotation
					End Site
					{
						OFFSET 0 -7.5 -5
					}
				}
			}
		}
	}
}
MOTION
Frames: 15
Frame Time: 0.05
0 95.5 0 -0 0 -0 -3.5616 1.5381 -109.93 3.8252 13.565 0.2799 3.8252 13.565 0.27988 3.207 11.394 0.29647 -0 0 -0 -0.34447 -29.963 -13.156 -70.591 -37.306 -60.383 -5.9928 1.8969 17.809 -0 0 -0 2.4188 -65.502 27.99 -51.367 -84.263 -50.633 -41.762 -26.477 -25.027 5.2956 -17.793 -4.8235 5.2956 -17.793 -4.8235 -0 0 -0 -0 0 -0 -0 0 -0 -0 0 -0 -0 0 -0 -0 0 -0 -0 0 -0 -0 0 -0 -0 0 -0 -0 0 -0 -0 0 -0 -0 0 -0 
0 95.5 0 -0 0 -0 -3.6409 1.5841 -109.52 3.8753 13.934 0.32684 3.8753 13.934 0.32683 3.2493 11.704 0.33831 -0 0 -0 -0.13487 -30.331 -13.338 -70.393 -37.433 -60.409 -6.1058 1.9343 17.895 -0 0 -0 2.5282 -63.112 26.808 -20.89 -87.59 -18.559 -43.143 -28.803 -24.063 4.738 -17.517 -4.9381 4.738 -17.517 -4.9381 -0 0 -0 -0 0 -0 -0 0 -0 -0 0 -0 -0 0 -0 -0 0 -0 -0 0 -0 -0 0 -0 -0 0 -0 -0 0 -0 -0 0 -0 -0 0 -0 
0 95.5 0 -0 0 -0 -3.6182 1.7655 -109.19 3.8562 14.221 0.43809 3.8562 14.221 0.43809 3.2349 11.944 0.43245 -0 0 -0 0.23682 -30.492 -13.502 -70.317 -37.698 -60.336 -6.0821 2.0974 17.657 -0 0 -0 3.2422 -61.808 26.134 56.07 -86.746 60.159 -45.228 -30.752 -22.901 4.3783 -17.503 -5.3144 4.3783 -17.503 -5.3144 -0 0 -0 -0 0 -0 -0 0 -0 -0 0 -0 -0 0 -0 -0 0 -0 -0 0 -0 -0 0 -0 -0 0 -0 -0 0 -0 -0 0 -0 -0 0 -0 
0 95.5 0 -0 0 -0 -3.5954 2.0594 -108.98 3.6122 14.396 0.65488 3.6122 14.396 0.65487 3.0342 12.09 0.61048 -0 0 -0 0.96955 -30.404 -13.328 -70.428 -37.732 -60.225 -6.0301 2.2216 17.576 -0 0 -0 5.1854 -61.337 27.65 69.911 -85.426 75.739 -46.623 -32.108 -21.294 4.3383 -17.575 -5.8637 4.3383 -17.575 -5.8637 -0 0 -0 -0 0 -0 -0 0 -0 -0 0 -0 -0 0 -0 -0 0 -0 -0 0 -0 -0 0 -0 -0 0 -0 -0 0 -0 -0 0 -0 -0 0 -0 
0 95.5 0 -0 0 -0 -3.5793 2.3025 -108.93 3.1299 14.339 0.97142 3.1299 14.339 0.97141 2.6361 12.041 0.86685 -0 0 -0 1.9995 -29.949 -13.201 -70.52 -37.835 -60.367 -6.0145 2.2835 17.725 -0 0 -0 7.3854 -61.417 30.002 74.566 -85.445 82.087 -46.479 -32.703 -19.008 4.53 -17.497 -6.5052 4.53 -17.497 -6.5052 -0 0 -0 -0 0 -0 -0 0 -0 -0 0 -0 -0 0 -0 -0 0 -0 -0 0 -0 -0 0 -0 -0 0 -0 -0 0 -0 -0 0 -0 -0 0 -0 
0 95.5 0 -0 0 -0 -3.5401 2.4866 -108.98 2.601 14.231 1.2622 2.601 14.231 1.2622 2.1984 11.95 1.1008 -0 0 -0 2.8679 -29.733 -13.101 -70.531 -37.948 -60.304 -6.006 2.3478 17.705 -0 0 -0 9.072 -62.189 32.224 81.006 -85.874 90.117 -45.678 -32.339 -16.341 4.7352 -17.549 -7.0829 4.7352 -17.549 -7.083 -0 0 -0 -0 0 -0 -0 0 -0 -0 0 -0 -0 0 -0 -0 0 -0 -0 0 -0 -0 0 -0 -0 0 -0 -0 0 -0 -0 0 -0 -0 0 -0 
0 95.5 0 -0 0 -0 -3.4887 2.7025 -109.07 2.0673 14.031 1.5109 2.0673 14.031 1.5109 1.7558 11.783 1.2995 -0 0 -0 3.5601 -29.575 -12.884 -70.496 -37.919 -60.075 -5.9287 2.4697 17.581 -0 0 -0 10.518 -62.966 34.618 94.385 -86.874 105.17 -44.79 -30.921 -14.214 4.9778 -17.663 -7.7004 4.9778 -17.663 -7.7004 -0 0 -0 -0 0 -0 -0 0 -0 -0 0 -0 -0 0 -0 -0 0 -0 -0 0 -0 -0 0 -0 -0 0 -0 -0 0 -0 -0 0 -0 -0 0 -0 
0 95.5 0 -0 0 -0 -3.461 2.9729 -109.16 1.651 13.677 1.6744 1.651 13.677 1.6744 1.4096 11.486 1.4288 -0 0 -0 3.753 -29.089 -12.732 -70.436 -37.793 -59.838 -5.8205 2.5487 17.555 -0 0 -0 11.4 -63.258 36.63 118.99 -87.722 130.85 -43.454 -29.436 -12.059 5.1354 -17.647 -8.4454 5.1354 -17.647 -8.4454 -0 0 -0 -0 0 -0 -0 0 -0 -0 0 -0 -0 0 -0 -0 0 -0 -0 0 -0 -0 0 -0 -0 0 -0 -0 0 -0 -0 0 -0 -0 0 -0 
0 95.5 0 -0 0 -0 -3.5044 3.2607 -109.33 1.2754 13.264 1.9048 1.2754 13.264 1.9048 1.0982 11.139 1.6152 -0 0 -0 3.7257 -28.54 -13.129 -70.374 -37.768 -59.749 -5.6881 2.5526 17.641 -0 0 -0 11.562 -63.316 37.003 135.99 -87.856 149.05 -42.254 -27.242 -10.755 5.2192 -17.583 -9.4474 5.2192 -17.583 -9.4474 -0 0 -0 -0 0 -0 -0 0 -0 -0 0 -0 -0 0 -0 -0 0 -0 -0 0 -0 -0 0 -0 -0 0 -0 -0 0 -0 -0 0 -0 -0 0 -0 
0 95.5 0 -0 0 -0 -3.6396 3.5298 -109.63 0.94442 12.846 2.1714 0.94442 12.846 2.1714 0.8243 10.789 1.8331 -0 0 -0 3.6272 -28.062 -13.826 -70.253 -37.707 -59.565 -5.6043 2.5169 17.607 -0 0 -0 11.258 -63.366 36.035 129.02 -87.823 142.79 -40.711 -24.298 -11.67 5.2105 -17.541 -10.593 5.2105 -17.541 -10.593 -0 0 -0 -0 0 -0 -0 0 -0 -0 0 -0 -0 0 -0 -0 0 -0 -0 0 -0 -0 0 -0 -0 0 -0 -0 0 -0 -0 0 -0 -0 0 -0 
0 95.5 0 -0 0 -0 -3.8738 3.7514 -110.01 0.75153 12.469 2.4494 0.75153 12.469 2.4494 0.66598 10.472 2.0629 -0 0 -0 3.2798 -27.664 -14.591 -70.037 -37.548 -59.334 -5.6974 2.4567 17.633 -0 0 -0 9.9309 -64.195 33.103 91.768 -87.073 104.18 -38.074 -22.103 -18.538 4.9593 -17.569 -11.864 4.9593 -17.569 -11.864 -0 0 -0 -0 0 -0 -0 0 -0 -0 0 -0 -0 0 -0 -0 0 -0 -0 0 -0 -0 0 -0 -0 0 -0 -0 0 -0 -0 0 -0 -0 0 -0 
0 95.5 0 -0 0 -0 -4.1108 3.8764 -110.4 0.63591 12.146 2.7635 0.63591 12.146 2.7635 0.57278 10.201 2.3244 -0 0 -0 2.8134 -27.324 -15.313 -69.843 -37.327 -59.069 -5.8106 2.509 17.485 -0 0 -0 6.8931 -64.103 27.453 84.713 -84.061 90.998 -37.445 -24.438 -26.117 4.6113 -17.733 -13.31 4.6113 -17.733 -13.31 -0 0 -0 -0 0 -0 -0 0 -0 -0 0 -0 -0 0 -0 -0 0 -0 -0 0 -0 -0 0 -0 -0 0 -0 -0 0 -0 -0 0 -0 -0 0 -0 
0 95.5 0 -0 0 -0 -4.2213 3.8826 -110.63 0.54315 12.042 3.0061 0.54315 12.042 3.0061 0.49822 10.114 2.5263 -0 0 -0 2.3628 -27.608 -15.714 -69.526 -37.015 -58.7 -6.0229 2.5966 17.354 -0 0 -0 3.9539 -63.454 21.252 94.586 -81.654 93.485 -41.019 -27.702 -28.384 4.3822 -18.395 -14.769 4.3822 -18.395 -14.769 -0 0 -0 -0 0 -0 -0 0 -0 -0 0 -0 -0 0 -0 -0 0 -0 -0 0 -0 -0 0 -0 -0 0 -0 -0 0 -0 -0 0 -0 -0 0 -0 
0 95.5 0 -0 0 -0 -4.1933 3.7742 -110.69 0.56266 12.006 2.9115 0.56266 12.006 2.9115 0.51309 10.083 2.4474 -0 0 -0 2.1593 -27.903 -14.908 -69.292 -36.547 -58.329 -6.2653 2.6126 17.289 -0 0 -0 1.814 -64.228 16.675 96.802 -83.57 93.431 -44.58 -25.598 -32.786 4.2136 -19.344 -15.771 4.2136 -19.344 -15.771 -0 0 -0 -0 0 -0 -0 0 -0 -0 0 -0 -0 0 -0 -0 0 -0 -0 0 -0 -0 0 -0 -0 0 -0 -0 0 -0 -0 0 -0 -0 0 -0 
0 95.5 0 -0 0 -0 -4.1097 3.5977 -110.63 0.72694 11.804 2.5153 0.72695 11.804 2.5153 0.64449 9.9134 2.1178 -0 0 -0 2.1766 -27.366 -13.108 -69.145 -36.002 -58.149 -6.4497 2.598 17.302 -0 0 -0 -0.20852 -66.065 13.738 56.299 -87.099 50.665 -45.217 -21.478 -36.358 4.0386 -20.066 -16.233 4.0386 -20.066 -16.233 -0 0 -0 -0 0 -0 -0 0 -0 -0 0 -0 -0 0 -0 -0 0 -0 -0 0 -0 -0 0 -0 -0 0 -0 -0 0 -0 -0 0 -0 -0 0 -0 
